PathFileType	4	(X / Y / Z)	Demo_145623_11_September_2019	Demo_145623_11_September_2019.trc
DataRate	CameraRate	NumFrames	NumMarkers	Units	OrigDataRate	OrigDataStartFrame	OrigNumFrames
50	50	25	25	m	50	665	820
Frame#	Time		SpineBase		SpineMid		Neck		Head		ShoulderLeft		ElbowLeft		WristLeft		HandLeft		ShoulderRight		ElbowRight		WristRight		HandRight		HipLeft		KneeLeft		AnkleLeft		FootLeft		HipRight		KneeRight		AnkleRight		FootRight		SpineShoulder		HandTipLeft		LeftThumb		HandTipRight		ThumbRight		
X1	Y1	Z1	X2	Y2	Z2	X3	Y3	Z3	X4	Y4	Z4	X5	Y5	Z5	X6	Y6	Z6	X7	Y7	Z7	X8	Y8	Z8	X9	Y9	Z9	X10	Y10	Z10	X11	Y11	Z11	X12	Y12	Z12	X13	Y13	Z13	X14	Y14	Z14	X15	Y15	Z15	X16	Y16	Z16	X17	Y17	Z17	X18	Y18	Z18	X19	Y19	Z19	X20	Y20	Z20	X21	Y21	Z21	X22	Y22	Z22	X23	Y23	Z23	X24	Y24	Z24	X25	Y25	Z25	
616	33.584	0.046	0.780	1.688	0.039	1.057	1.646	0.034	1.323	1.592	0.041	1.463	1.547	-0.110	1.232	1.582	-0.151	0.986	1.604	-0.188	0.800	1.579	-0.195	0.733	1.585	0.194	1.208	1.586	0.428	1.067	1.571	0.593	0.974	1.563	0.654	0.947	1.566	-0.027	0.786	1.655	-0.082	0.487	1.690	-0.092	0.207	1.762	-0.085	0.179	1.654	0.117	0.783	1.657	0.132	0.502	1.752	0.075	0.233	1.902	0.074	0.175	1.795	0.035	1.258	1.607	-0.184	0.663	1.579	-0.221	0.737	1.593	0.741	0.888	1.577	0.607	0.922	1.582
617	33.600	0.046	0.780	1.688	0.039	1.057	1.646	0.034	1.323	1.592	0.041	1.463	1.547	-0.110	1.232	1.582	-0.151	0.986	1.604	-0.188	0.800	1.579	-0.195	0.733	1.585	0.194	1.208	1.586	0.428	1.067	1.571	0.593	0.974	1.563	0.654	0.947	1.566	-0.027	0.786	1.655	-0.082	0.487	1.690	-0.092	0.207	1.762	-0.085	0.179	1.654	0.117	0.783	1.657	0.132	0.502	1.752	0.075	0.233	1.902	0.074	0.175	1.795	0.035	1.258	1.607	-0.184	0.663	1.579	-0.221	0.737	1.593	0.741	0.888	1.577	0.607	0.922	1.582
618	33.617	0.047	0.780	1.688	0.040	1.057	1.646	0.035	1.323	1.590	0.043	1.463	1.546	-0.109	1.232	1.580	-0.150	0.987	1.604	-0.189	0.802	1.581	-0.199	0.733	1.587	0.199	1.207	1.585	0.447	1.109	1.558	0.625	1.051	1.541	0.676	1.037	1.543	-0.027	0.786	1.654	-0.081	0.487	1.691	-0.091	0.208	1.762	-0.085	0.180	1.651	0.118	0.783	1.658	0.132	0.502	1.753	0.077	0.225	1.904	0.074	0.167	1.798	0.036	1.258	1.606	-0.188	0.663	1.584	-0.223	0.740	1.595	0.793	1.005	1.553	0.663	0.997	1.556
619	33.634	0.047	0.780	1.688	0.040	1.057	1.646	0.035	1.323	1.590	0.043	1.463	1.546	-0.109	1.232	1.580	-0.150	0.987	1.604	-0.189	0.802	1.581	-0.199	0.733	1.587	0.199	1.207	1.585	0.447	1.109	1.558	0.625	1.051	1.541	0.676	1.037	1.543	-0.027	0.786	1.654	-0.081	0.487	1.691	-0.091	0.208	1.762	-0.085	0.180	1.651	0.118	0.783	1.658	0.132	0.502	1.753	0.077	0.225	1.904	0.074	0.167	1.798	0.036	1.258	1.606	-0.188	0.663	1.584	-0.223	0.740	1.595	0.793	1.005	1.553	0.663	0.997	1.556
620	33.651	0.047	0.780	1.688	0.040	1.057	1.645	0.036	1.323	1.587	0.044	1.463	1.545	-0.109	1.232	1.577	-0.151	0.987	1.604	-0.191	0.805	1.582	-0.206	0.734	1.589	0.204	1.207	1.584	0.462	1.145	1.547	0.652	1.129	1.521	0.700	1.130	1.521	-0.027	0.786	1.653	-0.081	0.487	1.691	-0.091	0.208	1.761	-0.085	0.179	1.649	0.118	0.783	1.658	0.132	0.502	1.752	0.077	0.217	1.906	0.075	0.160	1.800	0.037	1.258	1.604	-0.194	0.663	1.587	-0.227	0.743	1.595	0.820	1.129	1.528	0.702	1.082	1.538
621	33.667	0.047	0.780	1.688	0.040	1.057	1.645	0.036	1.323	1.587	0.044	1.463	1.545	-0.109	1.232	1.577	-0.151	0.987	1.604	-0.191	0.805	1.582	-0.206	0.734	1.589	0.204	1.207	1.584	0.462	1.145	1.547	0.652	1.129	1.521	0.700	1.130	1.521	-0.027	0.786	1.653	-0.081	0.487	1.691	-0.091	0.208	1.761	-0.085	0.179	1.649	0.118	0.783	1.658	0.132	0.502	1.752	0.077	0.217	1.906	0.075	0.160	1.800	0.037	1.258	1.604	-0.194	0.663	1.587	-0.227	0.743	1.595	0.820	1.129	1.528	0.702	1.082	1.538
622	33.684	0.046	0.780	1.687	0.040	1.057	1.642	0.037	1.323	1.582	0.045	1.463	1.543	-0.109	1.232	1.572	-0.153	0.988	1.601	-0.195	0.807	1.583	-0.215	0.734	1.587	0.208	1.207	1.582	0.467	1.169	1.541	0.650	1.207	1.505	0.693	1.219	1.502	-0.027	0.786	1.651	-0.081	0.487	1.691	-0.094	0.210	1.765	-0.085	0.180	1.651	0.118	0.783	1.657	0.131	0.501	1.751	0.077	0.212	1.907	0.075	0.155	1.801	0.038	1.258	1.599	-0.205	0.664	1.588	-0.233	0.746	1.595	0.806	1.259	1.493	0.723	1.173	1.523
623	33.701	0.046	0.780	1.687	0.040	1.057	1.642	0.037	1.323	1.582	0.045	1.463	1.543	-0.109	1.232	1.572	-0.153	0.988	1.601	-0.195	0.807	1.583	-0.215	0.734	1.587	0.208	1.207	1.582	0.467	1.169	1.541	0.650	1.207	1.505	0.693	1.219	1.502	-0.027	0.786	1.651	-0.081	0.487	1.691	-0.094	0.210	1.765	-0.085	0.180	1.651	0.118	0.783	1.657	0.131	0.501	1.751	0.077	0.212	1.907	0.075	0.155	1.801	0.038	1.258	1.599	-0.205	0.664	1.588	-0.233	0.746	1.595	0.806	1.259	1.493	0.723	1.173	1.523
624	33.717	0.043	0.780	1.680	0.038	1.056	1.632	0.034	1.321	1.568	0.045	1.462	1.537	-0.114	1.230	1.556	-0.162	0.987	1.587	-0.207	0.807	1.576	-0.233	0.732	1.574	0.213	1.209	1.577	0.462	1.214	1.530	0.625	1.319	1.481	0.658	1.348	1.475	-0.031	0.786	1.641	-0.086	0.488	1.683	-0.101	0.208	1.752	-0.087	0.180	1.646	0.115	0.783	1.653	0.127	0.498	1.739	0.076	0.212	1.902	0.075	0.153	1.799	0.035	1.256	1.586	-0.220	0.664	1.584	-0.245	0.750	1.590	0.749	1.421	1.452	0.697	1.297	1.496
625	33.734	0.043	0.780	1.680	0.038	1.056	1.632	0.034	1.321	1.568	0.045	1.462	1.537	-0.114	1.230	1.556	-0.162	0.987	1.587	-0.207	0.807	1.576	-0.233	0.732	1.574	0.213	1.209	1.577	0.462	1.214	1.530	0.625	1.319	1.481	0.658	1.348	1.475	-0.031	0.786	1.641	-0.086	0.488	1.683	-0.101	0.208	1.752	-0.087	0.180	1.646	0.115	0.783	1.653	0.127	0.498	1.739	0.076	0.212	1.902	0.075	0.153	1.799	0.035	1.256	1.586	-0.220	0.664	1.584	-0.245	0.750	1.590	0.749	1.421	1.452	0.697	1.297	1.496
626	33.751	0.043	0.780	1.680	0.038	1.056	1.632	0.034	1.321	1.568	0.045	1.462	1.537	-0.114	1.230	1.556	-0.162	0.987	1.587	-0.207	0.807	1.576	-0.233	0.732	1.574	0.213	1.209	1.577	0.462	1.214	1.530	0.625	1.319	1.481	0.658	1.348	1.475	-0.031	0.786	1.641	-0.086	0.488	1.683	-0.101	0.208	1.752	-0.087	0.180	1.646	0.115	0.783	1.653	0.127	0.498	1.739	0.076	0.212	1.902	0.075	0.153	1.799	0.035	1.256	1.586	-0.220	0.664	1.584	-0.245	0.750	1.590	0.749	1.421	1.452	0.697	1.297	1.496
627	33.767	0.043	0.780	1.680	0.038	1.056	1.632	0.034	1.321	1.568	0.045	1.462	1.537	-0.114	1.230	1.556	-0.162	0.987	1.587	-0.207	0.807	1.576	-0.233	0.732	1.574	0.213	1.209	1.577	0.462	1.214	1.530	0.625	1.319	1.481	0.658	1.348	1.475	-0.031	0.786	1.641	-0.086	0.488	1.683	-0.101	0.208	1.752	-0.087	0.180	1.646	0.115	0.783	1.653	0.127	0.498	1.739	0.076	0.212	1.902	0.075	0.153	1.799	0.035	1.256	1.586	-0.220	0.664	1.584	-0.245	0.750	1.590	0.749	1.421	1.452	0.697	1.297	1.496
628	33.784	0.038	0.781	1.669	0.033	1.055	1.619	0.030	1.319	1.554	0.044	1.461	1.529	-0.120	1.228	1.539	-0.172	0.986	1.571	-0.221	0.805	1.564	-0.248	0.727	1.560	0.216	1.212	1.570	0.453	1.239	1.524	0.598	1.397	1.468	0.644	1.460	1.453	-0.035	0.786	1.627	-0.093	0.489	1.672	-0.105	0.209	1.744	-0.088	0.182	1.641	0.110	0.783	1.646	0.120	0.493	1.716	0.076	0.211	1.894	0.077	0.149	1.797	0.030	1.254	1.572	-0.236	0.661	1.577	-0.258	0.752	1.582	0.709	1.542	1.430	0.693	1.453	1.465
629	33.801	0.038	0.781	1.669	0.033	1.055	1.619	0.030	1.319	1.554	0.044	1.461	1.529	-0.120	1.228	1.539	-0.172	0.986	1.571	-0.221	0.805	1.564	-0.248	0.727	1.560	0.216	1.212	1.570	0.453	1.239	1.524	0.598	1.397	1.468	0.644	1.460	1.453	-0.035	0.786	1.627	-0.093	0.489	1.672	-0.105	0.209	1.744	-0.088	0.182	1.641	0.110	0.783	1.646	0.120	0.493	1.716	0.076	0.211	1.894	0.077	0.149	1.797	0.030	1.254	1.572	-0.236	0.661	1.577	-0.258	0.752	1.582	0.709	1.542	1.430	0.693	1.453	1.465
630	33.818	0.030	0.780	1.656	0.027	1.054	1.605	0.024	1.317	1.541	0.042	1.460	1.518	-0.127	1.225	1.523	-0.182	0.984	1.553	-0.235	0.799	1.548	-0.259	0.720	1.545	0.217	1.215	1.562	0.443	1.250	1.517	0.569	1.412	1.466	0.607	1.484	1.450	-0.042	0.786	1.611	-0.102	0.490	1.659	-0.106	0.212	1.736	-0.089	0.184	1.635	0.102	0.783	1.635	0.116	0.487	1.688	0.078	0.205	1.878	0.080	0.144	1.788	0.024	1.253	1.559	-0.245	0.656	1.568	-0.271	0.748	1.569	0.681	1.568	1.431	0.628	1.489	1.436
631	33.834	0.030	0.780	1.656	0.027	1.054	1.605	0.024	1.317	1.541	0.042	1.460	1.518	-0.127	1.225	1.523	-0.182	0.984	1.553	-0.235	0.799	1.548	-0.259	0.720	1.545	0.217	1.215	1.562	0.443	1.250	1.517	0.569	1.412	1.466	0.607	1.484	1.450	-0.042	0.786	1.611	-0.102	0.490	1.659	-0.106	0.212	1.736	-0.089	0.184	1.635	0.102	0.783	1.635	0.116	0.487	1.688	0.078	0.205	1.878	0.080	0.144	1.788	0.024	1.253	1.559	-0.245	0.656	1.568	-0.271	0.748	1.569	0.681	1.568	1.431	0.628	1.489	1.436
632	33.851	0.021	0.779	1.641	0.021	1.052	1.594	0.019	1.316	1.532	0.038	1.458	1.507	-0.131	1.224	1.514	-0.191	0.982	1.537	-0.246	0.793	1.532	-0.266	0.714	1.528	0.215	1.218	1.553	0.431	1.256	1.512	0.553	1.430	1.462	0.592	1.496	1.448	-0.050	0.784	1.595	-0.109	0.490	1.646	-0.107	0.203	1.736	-0.094	0.177	1.651	0.093	0.783	1.622	0.114	0.480	1.649	0.078	0.217	1.837	0.082	0.155	1.751	0.020	1.251	1.550	-0.253	0.650	1.555	-0.282	0.744	1.555	0.659	1.579	1.434	0.587	1.480	1.440
633	33.868	0.021	0.779	1.641	0.021	1.052	1.594	0.019	1.316	1.532	0.038	1.458	1.507	-0.131	1.224	1.514	-0.191	0.982	1.537	-0.246	0.793	1.532	-0.266	0.714	1.528	0.215	1.218	1.553	0.431	1.256	1.512	0.553	1.430	1.462	0.592	1.496	1.448	-0.050	0.784	1.595	-0.109	0.490	1.646	-0.107	0.203	1.736	-0.094	0.177	1.651	0.093	0.783	1.622	0.114	0.480	1.649	0.078	0.217	1.837	0.082	0.155	1.751	0.020	1.251	1.550	-0.253	0.650	1.555	-0.282	0.744	1.555	0.659	1.579	1.434	0.587	1.480	1.440
634	33.884	0.011	0.778	1.626	0.009	1.050	1.577	0.006	1.312	1.514	0.033	1.457	1.496	-0.143	1.220	1.490	-0.201	0.979	1.519	-0.257	0.787	1.512	-0.272	0.708	1.509	0.209	1.221	1.542	0.420	1.257	1.510	0.544	1.429	1.462	0.588	1.490	1.447	-0.059	0.783	1.578	-0.115	0.489	1.635	-0.107	0.197	1.736	-0.098	0.172	1.663	0.082	0.782	1.609	0.110	0.472	1.608	0.082	0.205	1.803	0.089	0.147	1.724	0.007	1.248	1.532	-0.262	0.644	1.542	-0.292	0.743	1.540	0.643	1.569	1.437	0.602	1.523	1.437
635	33.901	0.001	0.776	1.611	-0.001	1.048	1.563	-0.004	1.309	1.501	0.027	1.454	1.483	-0.151	1.217	1.474	-0.211	0.976	1.500	-0.266	0.781	1.491	-0.277	0.704	1.486	0.202	1.221	1.533	0.409	1.254	1.508	0.538	1.420	1.462	0.591	1.464	1.447	-0.069	0.780	1.563	-0.122	0.488	1.624	-0.106	0.198	1.735	-0.102	0.171	1.665	0.072	0.780	1.595	0.105	0.464	1.557	0.077	0.239	1.731	0.087	0.173	1.647	-0.003	1.245	1.519	-0.269	0.639	1.522	-0.301	0.739	1.518	0.642	1.530	1.448	0.611	1.505	1.445
636	33.918	0.001	0.776	1.611	-0.001	1.048	1.563	-0.004	1.309	1.501	0.027	1.454	1.483	-0.151	1.217	1.474	-0.211	0.976	1.500	-0.266	0.781	1.491	-0.277	0.704	1.486	0.202	1.221	1.533	0.409	1.254	1.508	0.538	1.420	1.462	0.591	1.464	1.447	-0.069	0.780	1.563	-0.122	0.488	1.624	-0.106	0.198	1.735	-0.102	0.171	1.665	0.072	0.780	1.595	0.105	0.464	1.557	0.077	0.239	1.731	0.087	0.173	1.647	-0.003	1.245	1.519	-0.269	0.639	1.522	-0.301	0.739	1.518	0.642	1.530	1.448	0.611	1.505	1.445
637	33.934	-0.009	0.772	1.595	-0.011	1.044	1.549	-0.012	1.306	1.490	0.019	1.451	1.470	-0.159	1.212	1.460	-0.219	0.971	1.484	-0.274	0.776	1.469	-0.283	0.698	1.461	0.193	1.220	1.524	0.395	1.237	1.506	0.549	1.376	1.465	0.603	1.420	1.452	-0.079	0.776	1.546	-0.128	0.486	1.615	-0.106	0.198	1.735	-0.105	0.170	1.668	0.061	0.776	1.580	0.104	0.460	1.528	0.070	0.253	1.689	0.086	0.186	1.607	-0.012	1.242	1.507	-0.276	0.632	1.495	-0.311	0.729	1.494	0.660	1.455	1.463	0.650	1.446	1.460
638	33.951	-0.009	0.772	1.595	-0.011	1.044	1.549	-0.012	1.306	1.490	0.019	1.451	1.470	-0.159	1.212	1.460	-0.219	0.971	1.484	-0.274	0.776	1.469	-0.283	0.698	1.461	0.193	1.220	1.524	0.395	1.237	1.506	0.549	1.376	1.465	0.603	1.420	1.452	-0.079	0.776	1.546	-0.128	0.486	1.615	-0.106	0.198	1.735	-0.105	0.170	1.668	0.061	0.776	1.580	0.104	0.460	1.528	0.070	0.253	1.689	0.086	0.186	1.607	-0.012	1.242	1.507	-0.276	0.632	1.495	-0.311	0.729	1.494	0.660	1.455	1.463	0.650	1.446	1.460
639	33.968	-0.018	0.766	1.579	-0.019	1.039	1.536	-0.020	1.303	1.480	0.011	1.447	1.455	-0.166	1.207	1.445	-0.228	0.966	1.467	-0.284	0.769	1.444	-0.289	0.692	1.434	0.185	1.217	1.517	0.381	1.203	1.506	0.548	1.290	1.474	0.618	1.339	1.463	-0.088	0.770	1.530	-0.133	0.484	1.606	-0.107	0.215	1.728	-0.100	0.178	1.645	0.052	0.772	1.564	0.108	0.457	1.500	0.047	0.226	1.667	0.085	0.184	1.623	-0.019	1.238	1.496	-0.281	0.624	1.464	-0.320	0.718	1.467	0.675	1.365	1.468	0.640	1.362	1.472
640	33.985	-0.018	0.766	1.579	-0.019	1.039	1.536	-0.020	1.303	1.480	0.011	1.447	1.455	-0.166	1.207	1.445	-0.228	0.966	1.467	-0.284	0.769	1.444	-0.289	0.692	1.434	0.185	1.217	1.517	0.381	1.203	1.506	0.548	1.290	1.474	0.618	1.339	1.463	-0.088	0.770	1.530	-0.133	0.484	1.606	-0.107	0.215	1.728	-0.100	0.178	1.645	0.052	0.772	1.564	0.108	0.457	1.500	0.047	0.226	1.667	0.085	0.184	1.623	-0.019	1.238	1.496	-0.281	0.624	1.464	-0.320	0.718	1.467	0.675	1.365	1.468	0.640	1.362	1.472
